<mxfile host="app.diagrams.net" modified="2021-08-11T04:41:22.989Z" agent="5.0 (Windows NT 10.0; Win64; x64) AppleWebKit/537.36 (KHTML, like Gecko) Chrome/92.0.4515.131 Safari/537.36" etag="-N8dHrxoYOK6s83ZNakT" version="14.9.5" type="github">
  <diagram id="0fxuml4Tpd1Qa8vYL9Xj" name="Page-1">
    <mxGraphModel dx="1209" dy="662" grid="1" gridSize="10" guides="1" tooltips="1" connect="1" arrows="1" fold="1" page="1" pageScale="1" pageWidth="827" pageHeight="1169" math="0" shadow="0">
      <root>
        <mxCell id="0" />
        <mxCell id="1" parent="0" />
        <mxCell id="Ho2adMucD-iqSMCuBfXI-12" value="Patient&amp;nbsp;" style="rounded=0;whiteSpace=wrap;html=1;" parent="1" vertex="1">
          <mxGeometry x="240" y="180" width="120" height="40" as="geometry" />
        </mxCell>
        <mxCell id="Ho2adMucD-iqSMCuBfXI-13" value="admits&amp;nbsp;" style="rhombus;whiteSpace=wrap;html=1;" parent="1" vertex="1">
          <mxGeometry x="500" y="160" width="80" height="80" as="geometry" />
        </mxCell>
        <mxCell id="Ho2adMucD-iqSMCuBfXI-14" value="Hospital" style="rounded=0;whiteSpace=wrap;html=1;" parent="1" vertex="1">
          <mxGeometry x="750" y="180" width="120" height="40" as="geometry" />
        </mxCell>
        <mxCell id="Ho2adMucD-iqSMCuBfXI-15" value="Name&amp;nbsp;" style="ellipse;whiteSpace=wrap;html=1;" parent="1" vertex="1">
          <mxGeometry x="100" y="75" width="100" height="30" as="geometry" />
        </mxCell>
        <mxCell id="Ho2adMucD-iqSMCuBfXI-16" value="Ph.no" style="ellipse;whiteSpace=wrap;html=1;" parent="1" vertex="1">
          <mxGeometry x="70" y="120" width="90" height="30" as="geometry" />
        </mxCell>
        <mxCell id="Ho2adMucD-iqSMCuBfXI-17" value="gender&amp;nbsp;" style="ellipse;whiteSpace=wrap;html=1;" parent="1" vertex="1">
          <mxGeometry x="160" y="30" width="100" height="30" as="geometry" />
        </mxCell>
        <mxCell id="Ho2adMucD-iqSMCuBfXI-18" value="Address" style="ellipse;whiteSpace=wrap;html=1;" parent="1" vertex="1">
          <mxGeometry x="270" y="25" width="110" height="40" as="geometry" />
        </mxCell>
        <mxCell id="Ho2adMucD-iqSMCuBfXI-19" value="area&amp;nbsp;" style="ellipse;whiteSpace=wrap;html=1;" parent="1" vertex="1">
          <mxGeometry x="410" y="50" width="90" height="30" as="geometry" />
        </mxCell>
        <mxCell id="Ho2adMucD-iqSMCuBfXI-20" value="Pin code&amp;nbsp;" style="ellipse;whiteSpace=wrap;html=1;" parent="1" vertex="1">
          <mxGeometry x="400" y="15" width="80" height="30" as="geometry" />
        </mxCell>
        <mxCell id="Ho2adMucD-iqSMCuBfXI-21" value="" style="endArrow=none;html=1;entryX=0.5;entryY=1;entryDx=0;entryDy=0;exitX=0;exitY=0;exitDx=0;exitDy=0;" parent="1" source="Ho2adMucD-iqSMCuBfXI-12" target="Ho2adMucD-iqSMCuBfXI-16" edge="1">
          <mxGeometry width="50" height="50" relative="1" as="geometry">
            <mxPoint x="300" y="400" as="sourcePoint" />
            <mxPoint x="350" y="350" as="targetPoint" />
          </mxGeometry>
        </mxCell>
        <mxCell id="Ho2adMucD-iqSMCuBfXI-23" value="" style="endArrow=none;html=1;entryX=0.5;entryY=1;entryDx=0;entryDy=0;exitX=0.131;exitY=-0.031;exitDx=0;exitDy=0;exitPerimeter=0;" parent="1" source="Ho2adMucD-iqSMCuBfXI-12" target="Ho2adMucD-iqSMCuBfXI-15" edge="1">
          <mxGeometry width="50" height="50" relative="1" as="geometry">
            <mxPoint x="220" y="390" as="sourcePoint" />
            <mxPoint x="270" y="340" as="targetPoint" />
          </mxGeometry>
        </mxCell>
        <mxCell id="Ho2adMucD-iqSMCuBfXI-24" value="" style="endArrow=none;html=1;entryX=0.5;entryY=1;entryDx=0;entryDy=0;exitX=0.25;exitY=0;exitDx=0;exitDy=0;" parent="1" source="Ho2adMucD-iqSMCuBfXI-12" target="Ho2adMucD-iqSMCuBfXI-17" edge="1">
          <mxGeometry width="50" height="50" relative="1" as="geometry">
            <mxPoint x="280" y="230" as="sourcePoint" />
            <mxPoint x="320" y="320" as="targetPoint" />
          </mxGeometry>
        </mxCell>
        <mxCell id="Ho2adMucD-iqSMCuBfXI-25" value="" style="endArrow=none;html=1;entryX=0;entryY=1;entryDx=0;entryDy=0;exitX=0.5;exitY=0;exitDx=0;exitDy=0;" parent="1" source="Ho2adMucD-iqSMCuBfXI-12" target="Ho2adMucD-iqSMCuBfXI-18" edge="1">
          <mxGeometry width="50" height="50" relative="1" as="geometry">
            <mxPoint x="310" y="180" as="sourcePoint" />
            <mxPoint x="300" y="250" as="targetPoint" />
          </mxGeometry>
        </mxCell>
        <mxCell id="Ho2adMucD-iqSMCuBfXI-26" value="" style="endArrow=none;html=1;entryX=0;entryY=0.5;entryDx=0;entryDy=0;exitX=1;exitY=0;exitDx=0;exitDy=0;" parent="1" source="Ho2adMucD-iqSMCuBfXI-18" target="Ho2adMucD-iqSMCuBfXI-20" edge="1">
          <mxGeometry width="50" height="50" relative="1" as="geometry">
            <mxPoint x="170" y="340" as="sourcePoint" />
            <mxPoint x="220" y="290" as="targetPoint" />
          </mxGeometry>
        </mxCell>
        <mxCell id="Ho2adMucD-iqSMCuBfXI-27" value="" style="endArrow=none;html=1;entryX=0;entryY=0.5;entryDx=0;entryDy=0;exitX=0.93;exitY=0.792;exitDx=0;exitDy=0;exitPerimeter=0;" parent="1" source="Ho2adMucD-iqSMCuBfXI-18" target="Ho2adMucD-iqSMCuBfXI-19" edge="1">
          <mxGeometry width="50" height="50" relative="1" as="geometry">
            <mxPoint x="220" y="350" as="sourcePoint" />
            <mxPoint x="270" y="300" as="targetPoint" />
          </mxGeometry>
        </mxCell>
        <mxCell id="Ho2adMucD-iqSMCuBfXI-28" style="edgeStyle=orthogonalEdgeStyle;rounded=0;orthogonalLoop=1;jettySize=auto;html=1;exitX=0.5;exitY=1;exitDx=0;exitDy=0;" parent="1" source="Ho2adMucD-iqSMCuBfXI-17" target="Ho2adMucD-iqSMCuBfXI-17" edge="1">
          <mxGeometry relative="1" as="geometry" />
        </mxCell>
        <mxCell id="Ho2adMucD-iqSMCuBfXI-29" value="Street&amp;nbsp;" style="ellipse;whiteSpace=wrap;html=1;" parent="1" vertex="1">
          <mxGeometry x="370" y="90" width="90" height="30" as="geometry" />
        </mxCell>
        <mxCell id="Ho2adMucD-iqSMCuBfXI-30" value="" style="endArrow=none;html=1;entryX=0.641;entryY=1.019;entryDx=0;entryDy=0;entryPerimeter=0;exitX=0.616;exitY=0.07;exitDx=0;exitDy=0;exitPerimeter=0;" parent="1" source="Ho2adMucD-iqSMCuBfXI-29" target="Ho2adMucD-iqSMCuBfXI-18" edge="1">
          <mxGeometry width="50" height="50" relative="1" as="geometry">
            <mxPoint x="220" y="350" as="sourcePoint" />
            <mxPoint x="270" y="300" as="targetPoint" />
          </mxGeometry>
        </mxCell>
        <mxCell id="Ho2adMucD-iqSMCuBfXI-31" value="M" style="endArrow=none;html=1;entryX=0;entryY=0.5;entryDx=0;entryDy=0;exitX=1;exitY=0.5;exitDx=0;exitDy=0;" parent="1" source="Ho2adMucD-iqSMCuBfXI-12" target="Ho2adMucD-iqSMCuBfXI-13" edge="1">
          <mxGeometry width="50" height="50" relative="1" as="geometry">
            <mxPoint x="270" y="300" as="sourcePoint" />
            <mxPoint x="320" y="250" as="targetPoint" />
          </mxGeometry>
        </mxCell>
        <mxCell id="Ho2adMucD-iqSMCuBfXI-32" value="1" style="endArrow=none;html=1;entryX=0;entryY=0.5;entryDx=0;entryDy=0;exitX=1;exitY=0.5;exitDx=0;exitDy=0;" parent="1" source="Ho2adMucD-iqSMCuBfXI-13" target="Ho2adMucD-iqSMCuBfXI-14" edge="1">
          <mxGeometry width="50" height="50" relative="1" as="geometry">
            <mxPoint x="310" y="370" as="sourcePoint" />
            <mxPoint x="360" y="320" as="targetPoint" />
          </mxGeometry>
        </mxCell>
        <mxCell id="Ho2adMucD-iqSMCuBfXI-33" value="Name of hospital&amp;nbsp;" style="ellipse;whiteSpace=wrap;html=1;" parent="1" vertex="1">
          <mxGeometry x="690" y="70" width="120" height="40" as="geometry" />
        </mxCell>
        <mxCell id="Ho2adMucD-iqSMCuBfXI-34" value="Address" style="ellipse;whiteSpace=wrap;html=1;" parent="1" vertex="1">
          <mxGeometry x="810" y="100" width="120" height="40" as="geometry" />
        </mxCell>
        <mxCell id="Ho2adMucD-iqSMCuBfXI-35" value="area" style="ellipse;whiteSpace=wrap;html=1;" parent="1" vertex="1">
          <mxGeometry x="850" y="10" width="100" height="40" as="geometry" />
        </mxCell>
        <mxCell id="Ho2adMucD-iqSMCuBfXI-36" value="" style="endArrow=none;html=1;entryX=0.219;entryY=0.958;entryDx=0;entryDy=0;entryPerimeter=0;exitX=0.645;exitY=0.008;exitDx=0;exitDy=0;exitPerimeter=0;" parent="1" source="Ho2adMucD-iqSMCuBfXI-14" target="Ho2adMucD-iqSMCuBfXI-34" edge="1">
          <mxGeometry width="50" height="50" relative="1" as="geometry">
            <mxPoint x="240" y="360" as="sourcePoint" />
            <mxPoint x="290" y="310" as="targetPoint" />
          </mxGeometry>
        </mxCell>
        <mxCell id="Ho2adMucD-iqSMCuBfXI-37" value="" style="endArrow=none;html=1;entryX=0.5;entryY=1;entryDx=0;entryDy=0;exitX=0.5;exitY=0;exitDx=0;exitDy=0;" parent="1" source="Ho2adMucD-iqSMCuBfXI-34" target="Ho2adMucD-iqSMCuBfXI-35" edge="1">
          <mxGeometry width="50" height="50" relative="1" as="geometry">
            <mxPoint x="130" y="320" as="sourcePoint" />
            <mxPoint x="180" y="270" as="targetPoint" />
          </mxGeometry>
        </mxCell>
        <mxCell id="Ho2adMucD-iqSMCuBfXI-38" value="" style="endArrow=none;html=1;entryX=0.583;entryY=1;entryDx=0;entryDy=0;entryPerimeter=0;exitX=0.25;exitY=0;exitDx=0;exitDy=0;" parent="1" source="Ho2adMucD-iqSMCuBfXI-14" target="Ho2adMucD-iqSMCuBfXI-33" edge="1">
          <mxGeometry width="50" height="50" relative="1" as="geometry">
            <mxPoint x="320" y="380" as="sourcePoint" />
            <mxPoint x="370" y="330" as="targetPoint" />
          </mxGeometry>
        </mxCell>
        <mxCell id="Ho2adMucD-iqSMCuBfXI-39" value="taken care" style="rhombus;whiteSpace=wrap;html=1;" parent="1" vertex="1">
          <mxGeometry x="500" y="260" width="80" height="80" as="geometry" />
        </mxCell>
        <mxCell id="Ho2adMucD-iqSMCuBfXI-40" value="Nurse&amp;nbsp;" style="rounded=0;whiteSpace=wrap;html=1;" parent="1" vertex="1">
          <mxGeometry x="780" y="280" width="120" height="40" as="geometry" />
        </mxCell>
        <mxCell id="Ho2adMucD-iqSMCuBfXI-41" value="1" style="endArrow=none;html=1;entryX=0;entryY=0.5;entryDx=0;entryDy=0;exitX=1;exitY=1;exitDx=0;exitDy=0;" parent="1" source="Ho2adMucD-iqSMCuBfXI-12" target="Ho2adMucD-iqSMCuBfXI-39" edge="1">
          <mxGeometry width="50" height="50" relative="1" as="geometry">
            <mxPoint x="290" y="310" as="sourcePoint" />
            <mxPoint x="340" y="260" as="targetPoint" />
          </mxGeometry>
        </mxCell>
        <mxCell id="Ho2adMucD-iqSMCuBfXI-42" value="1" style="endArrow=none;html=1;entryX=0;entryY=0.5;entryDx=0;entryDy=0;exitX=1;exitY=0.5;exitDx=0;exitDy=0;" parent="1" source="Ho2adMucD-iqSMCuBfXI-39" target="Ho2adMucD-iqSMCuBfXI-40" edge="1">
          <mxGeometry width="50" height="50" relative="1" as="geometry">
            <mxPoint x="570" y="420" as="sourcePoint" />
            <mxPoint x="620" y="370" as="targetPoint" />
          </mxGeometry>
        </mxCell>
        <mxCell id="Ho2adMucD-iqSMCuBfXI-43" value="Sees" style="rhombus;whiteSpace=wrap;html=1;" parent="1" vertex="1">
          <mxGeometry x="290" y="360" width="80" height="80" as="geometry" />
        </mxCell>
        <mxCell id="Ho2adMucD-iqSMCuBfXI-44" value="doctor&amp;nbsp;" style="rounded=0;whiteSpace=wrap;html=1;" parent="1" vertex="1">
          <mxGeometry x="460" y="500" width="120" height="40" as="geometry" />
        </mxCell>
        <mxCell id="Ho2adMucD-iqSMCuBfXI-45" value="1" style="endArrow=none;html=1;entryX=0.5;entryY=0;entryDx=0;entryDy=0;exitX=0.75;exitY=1;exitDx=0;exitDy=0;" parent="1" source="Ho2adMucD-iqSMCuBfXI-12" target="Ho2adMucD-iqSMCuBfXI-43" edge="1">
          <mxGeometry width="50" height="50" relative="1" as="geometry">
            <mxPoint x="330" y="370" as="sourcePoint" />
            <mxPoint x="380" y="320" as="targetPoint" />
          </mxGeometry>
        </mxCell>
        <mxCell id="Ho2adMucD-iqSMCuBfXI-46" value="1" style="endArrow=none;html=1;exitX=0.5;exitY=1;exitDx=0;exitDy=0;entryX=0;entryY=0.5;entryDx=0;entryDy=0;" parent="1" source="Ho2adMucD-iqSMCuBfXI-43" target="Ho2adMucD-iqSMCuBfXI-44" edge="1">
          <mxGeometry width="50" height="50" relative="1" as="geometry">
            <mxPoint x="550" y="440" as="sourcePoint" />
            <mxPoint x="600" y="390" as="targetPoint" />
            <Array as="points">
              <mxPoint x="330" y="520" />
            </Array>
          </mxGeometry>
        </mxCell>
        <mxCell id="Ho2adMucD-iqSMCuBfXI-47" value="insists" style="rhombus;whiteSpace=wrap;html=1;" parent="1" vertex="1">
          <mxGeometry x="670" y="390" width="80" height="80" as="geometry" />
        </mxCell>
        <mxCell id="Ho2adMucD-iqSMCuBfXI-48" value="M" style="endArrow=none;html=1;entryX=0.5;entryY=1;entryDx=0;entryDy=0;exitX=1;exitY=0.5;exitDx=0;exitDy=0;" parent="1" source="Ho2adMucD-iqSMCuBfXI-47" target="Ho2adMucD-iqSMCuBfXI-40" edge="1">
          <mxGeometry width="50" height="50" relative="1" as="geometry">
            <mxPoint x="820" y="450" as="sourcePoint" />
            <mxPoint x="870" y="400" as="targetPoint" />
            <Array as="points">
              <mxPoint x="840" y="430" />
            </Array>
          </mxGeometry>
        </mxCell>
        <mxCell id="Ho2adMucD-iqSMCuBfXI-49" value="1" style="endArrow=none;html=1;entryX=0;entryY=0.5;entryDx=0;entryDy=0;exitX=1;exitY=0.5;exitDx=0;exitDy=0;" parent="1" source="Ho2adMucD-iqSMCuBfXI-44" target="Ho2adMucD-iqSMCuBfXI-47" edge="1">
          <mxGeometry width="50" height="50" relative="1" as="geometry">
            <mxPoint x="460" y="440" as="sourcePoint" />
            <mxPoint x="510" y="390" as="targetPoint" />
            <Array as="points">
              <mxPoint x="670" y="520" />
            </Array>
          </mxGeometry>
        </mxCell>
        <mxCell id="Ho2adMucD-iqSMCuBfXI-50" value="gender&amp;nbsp;" style="ellipse;whiteSpace=wrap;html=1;" parent="1" vertex="1">
          <mxGeometry x="960" y="325" width="100" height="35" as="geometry" />
        </mxCell>
        <mxCell id="Ho2adMucD-iqSMCuBfXI-51" value="" style="endArrow=none;html=1;entryX=0;entryY=0.5;entryDx=0;entryDy=0;exitX=1;exitY=0.75;exitDx=0;exitDy=0;" parent="1" source="Ho2adMucD-iqSMCuBfXI-40" target="Ho2adMucD-iqSMCuBfXI-50" edge="1">
          <mxGeometry width="50" height="50" relative="1" as="geometry">
            <mxPoint x="890" y="390" as="sourcePoint" />
            <mxPoint x="1020" y="390" as="targetPoint" />
          </mxGeometry>
        </mxCell>
        <mxCell id="Ho2adMucD-iqSMCuBfXI-52" value="Name" style="ellipse;whiteSpace=wrap;html=1;" parent="1" vertex="1">
          <mxGeometry x="965" y="270" width="90" height="40" as="geometry" />
        </mxCell>
        <mxCell id="Ho2adMucD-iqSMCuBfXI-54" value="" style="endArrow=none;html=1;entryX=0;entryY=0.5;entryDx=0;entryDy=0;exitX=1;exitY=0.25;exitDx=0;exitDy=0;" parent="1" source="Ho2adMucD-iqSMCuBfXI-40" target="Ho2adMucD-iqSMCuBfXI-52" edge="1">
          <mxGeometry width="50" height="50" relative="1" as="geometry">
            <mxPoint x="840" y="520" as="sourcePoint" />
            <mxPoint x="890" y="470" as="targetPoint" />
          </mxGeometry>
        </mxCell>
        <mxCell id="Ho2adMucD-iqSMCuBfXI-55" value="Name&amp;nbsp;" style="ellipse;whiteSpace=wrap;html=1;" parent="1" vertex="1">
          <mxGeometry x="400" y="590" width="100" height="35" as="geometry" />
        </mxCell>
        <mxCell id="Ho2adMucD-iqSMCuBfXI-56" value="" style="endArrow=none;html=1;entryX=0.44;entryY=1.003;entryDx=0;entryDy=0;entryPerimeter=0;exitX=0.5;exitY=0;exitDx=0;exitDy=0;" parent="1" source="Ho2adMucD-iqSMCuBfXI-55" target="Ho2adMucD-iqSMCuBfXI-44" edge="1">
          <mxGeometry width="50" height="50" relative="1" as="geometry">
            <mxPoint x="570" y="670" as="sourcePoint" />
            <mxPoint x="620" y="620" as="targetPoint" />
          </mxGeometry>
        </mxCell>
        <mxCell id="Ho2adMucD-iqSMCuBfXI-57" value="Qualification&amp;nbsp;" style="ellipse;whiteSpace=wrap;html=1;" parent="1" vertex="1">
          <mxGeometry x="520" y="585" width="110" height="40" as="geometry" />
        </mxCell>
        <mxCell id="Ho2adMucD-iqSMCuBfXI-58" value="" style="endArrow=none;html=1;entryX=0.5;entryY=1;entryDx=0;entryDy=0;exitX=0.29;exitY=0.056;exitDx=0;exitDy=0;exitPerimeter=0;" parent="1" source="Ho2adMucD-iqSMCuBfXI-57" target="Ho2adMucD-iqSMCuBfXI-44" edge="1">
          <mxGeometry width="50" height="50" relative="1" as="geometry">
            <mxPoint x="430" y="740" as="sourcePoint" />
            <mxPoint x="480" y="690" as="targetPoint" />
          </mxGeometry>
        </mxCell>
        <mxCell id="Ho2adMucD-iqSMCuBfXI-59" value="MBBS" style="ellipse;whiteSpace=wrap;html=1;" parent="1" vertex="1">
          <mxGeometry x="520" y="660" width="110" height="30" as="geometry" />
        </mxCell>
        <mxCell id="Ho2adMucD-iqSMCuBfXI-60" value="" style="endArrow=none;html=1;entryX=0.5;entryY=1;entryDx=0;entryDy=0;exitX=0.5;exitY=0;exitDx=0;exitDy=0;" parent="1" source="Ho2adMucD-iqSMCuBfXI-59" target="Ho2adMucD-iqSMCuBfXI-57" edge="1">
          <mxGeometry width="50" height="50" relative="1" as="geometry">
            <mxPoint x="700" y="660" as="sourcePoint" />
            <mxPoint x="610" y="650" as="targetPoint" />
          </mxGeometry>
        </mxCell>
        <mxCell id="Ho2adMucD-iqSMCuBfXI-61" value="Pays" style="rhombus;whiteSpace=wrap;html=1;" parent="1" vertex="1">
          <mxGeometry x="40" y="270" width="80" height="80" as="geometry" />
        </mxCell>
        <mxCell id="Ho2adMucD-iqSMCuBfXI-62" value="Bills" style="rounded=0;whiteSpace=wrap;html=1;" parent="1" vertex="1">
          <mxGeometry x="20" y="430" width="120" height="40" as="geometry" />
        </mxCell>
        <mxCell id="Ho2adMucD-iqSMCuBfXI-63" value="" style="endArrow=none;html=1;entryX=0.5;entryY=1;entryDx=0;entryDy=0;exitX=0.5;exitY=0;exitDx=0;exitDy=0;" parent="1" source="Ho2adMucD-iqSMCuBfXI-62" target="Ho2adMucD-iqSMCuBfXI-61" edge="1">
          <mxGeometry width="50" height="50" relative="1" as="geometry">
            <mxPoint x="210" y="400" as="sourcePoint" />
            <mxPoint x="140" y="370" as="targetPoint" />
          </mxGeometry>
        </mxCell>
        <mxCell id="Ho2adMucD-iqSMCuBfXI-64" value="" style="endArrow=none;html=1;entryX=0;entryY=1;entryDx=0;entryDy=0;exitX=0.5;exitY=0;exitDx=0;exitDy=0;" parent="1" source="Ho2adMucD-iqSMCuBfXI-61" target="Ho2adMucD-iqSMCuBfXI-12" edge="1">
          <mxGeometry width="50" height="50" relative="1" as="geometry">
            <mxPoint x="230" y="410" as="sourcePoint" />
            <mxPoint x="280" y="360" as="targetPoint" />
            <Array as="points">
              <mxPoint x="80" y="220" />
            </Array>
          </mxGeometry>
        </mxCell>
        <mxCell id="Ho2adMucD-iqSMCuBfXI-65" value="suggests" style="rhombus;whiteSpace=wrap;html=1;" parent="1" vertex="1">
          <mxGeometry x="720" y="545" width="80" height="80" as="geometry" />
        </mxCell>
        <mxCell id="Ho2adMucD-iqSMCuBfXI-66" value="Medicines&amp;nbsp;" style="rounded=0;whiteSpace=wrap;html=1;" parent="1" vertex="1">
          <mxGeometry x="870" y="640" width="120" height="40" as="geometry" />
        </mxCell>
        <mxCell id="Ho2adMucD-iqSMCuBfXI-67" value="1" style="endArrow=none;html=1;entryX=1;entryY=1;entryDx=0;entryDy=0;exitX=0;exitY=0.5;exitDx=0;exitDy=0;" parent="1" source="Ho2adMucD-iqSMCuBfXI-65" target="Ho2adMucD-iqSMCuBfXI-44" edge="1">
          <mxGeometry width="50" height="50" relative="1" as="geometry">
            <mxPoint x="100" y="670" as="sourcePoint" />
            <mxPoint x="150" y="620" as="targetPoint" />
          </mxGeometry>
        </mxCell>
        <mxCell id="Ho2adMucD-iqSMCuBfXI-68" value="M" style="endArrow=none;html=1;exitX=1;exitY=0.5;exitDx=0;exitDy=0;entryX=0.445;entryY=0.014;entryDx=0;entryDy=0;entryPerimeter=0;" parent="1" source="Ho2adMucD-iqSMCuBfXI-65" target="Ho2adMucD-iqSMCuBfXI-66" edge="1">
          <mxGeometry width="50" height="50" relative="1" as="geometry">
            <mxPoint x="810" y="600" as="sourcePoint" />
            <mxPoint x="860" y="550" as="targetPoint" />
            <Array as="points">
              <mxPoint x="923" y="585" />
            </Array>
          </mxGeometry>
        </mxCell>
        <mxCell id="Ho2adMucD-iqSMCuBfXI-69" value="Takes" style="rhombus;whiteSpace=wrap;html=1;" parent="1" vertex="1">
          <mxGeometry x="240" y="690" width="80" height="80" as="geometry" />
        </mxCell>
        <mxCell id="Ho2adMucD-iqSMCuBfXI-70" value="1" style="endArrow=none;html=1;exitX=0.5;exitY=0;exitDx=0;exitDy=0;entryX=0.333;entryY=1;entryDx=0;entryDy=0;entryPerimeter=0;" parent="1" source="Ho2adMucD-iqSMCuBfXI-69" target="Ho2adMucD-iqSMCuBfXI-12" edge="1">
          <mxGeometry width="50" height="50" relative="1" as="geometry">
            <mxPoint x="200" y="560" as="sourcePoint" />
            <mxPoint x="250" y="250" as="targetPoint" />
          </mxGeometry>
        </mxCell>
        <mxCell id="Ho2adMucD-iqSMCuBfXI-71" value="M" style="endArrow=none;html=1;exitX=1;exitY=0.5;exitDx=0;exitDy=0;entryX=0.5;entryY=1;entryDx=0;entryDy=0;" parent="1" source="Ho2adMucD-iqSMCuBfXI-69" target="Ho2adMucD-iqSMCuBfXI-66" edge="1">
          <mxGeometry width="50" height="50" relative="1" as="geometry">
            <mxPoint x="370" y="770" as="sourcePoint" />
            <mxPoint x="420" y="720" as="targetPoint" />
            <Array as="points">
              <mxPoint x="930" y="730" />
            </Array>
          </mxGeometry>
        </mxCell>
        <mxCell id="Ho2adMucD-iqSMCuBfXI-72" value="paracetamol&amp;nbsp;" style="ellipse;whiteSpace=wrap;html=1;" parent="1" vertex="1">
          <mxGeometry x="1050" y="587.5" width="110" height="35" as="geometry" />
        </mxCell>
        <mxCell id="Ho2adMucD-iqSMCuBfXI-73" value="" style="endArrow=none;html=1;entryX=0.278;entryY=0.93;entryDx=0;entryDy=0;entryPerimeter=0;exitX=1;exitY=0.25;exitDx=0;exitDy=0;" parent="1" source="Ho2adMucD-iqSMCuBfXI-66" target="Ho2adMucD-iqSMCuBfXI-72" edge="1">
          <mxGeometry width="50" height="50" relative="1" as="geometry">
            <mxPoint x="740" y="950" as="sourcePoint" />
            <mxPoint x="790" y="900" as="targetPoint" />
          </mxGeometry>
        </mxCell>
        <mxCell id="Ho2adMucD-iqSMCuBfXI-74" value="Pantop&amp;nbsp;" style="ellipse;whiteSpace=wrap;html=1;" parent="1" vertex="1">
          <mxGeometry x="1080" y="630" width="120" height="40" as="geometry" />
        </mxCell>
        <mxCell id="Ho2adMucD-iqSMCuBfXI-75" value="" style="endArrow=none;html=1;entryX=0;entryY=0.5;entryDx=0;entryDy=0;exitX=1;exitY=0.5;exitDx=0;exitDy=0;" parent="1" source="Ho2adMucD-iqSMCuBfXI-66" target="Ho2adMucD-iqSMCuBfXI-74" edge="1">
          <mxGeometry width="50" height="50" relative="1" as="geometry">
            <mxPoint x="910" y="920" as="sourcePoint" />
            <mxPoint x="960" y="870" as="targetPoint" />
          </mxGeometry>
        </mxCell>
        <mxCell id="Ho2adMucD-iqSMCuBfXI-76" value="naprosyn&amp;nbsp;" style="ellipse;whiteSpace=wrap;html=1;" parent="1" vertex="1">
          <mxGeometry x="1080" y="680" width="120" height="40" as="geometry" />
        </mxCell>
        <mxCell id="Ho2adMucD-iqSMCuBfXI-77" value="Anti coff" style="ellipse;whiteSpace=wrap;html=1;" parent="1" vertex="1">
          <mxGeometry x="1030" y="730" width="120" height="40" as="geometry" />
        </mxCell>
        <mxCell id="Ho2adMucD-iqSMCuBfXI-78" value="" style="endArrow=none;html=1;entryX=0.286;entryY=0.008;entryDx=0;entryDy=0;entryPerimeter=0;exitX=1;exitY=0.75;exitDx=0;exitDy=0;" parent="1" source="Ho2adMucD-iqSMCuBfXI-66" target="Ho2adMucD-iqSMCuBfXI-77" edge="1">
          <mxGeometry width="50" height="50" relative="1" as="geometry">
            <mxPoint x="570" y="910" as="sourcePoint" />
            <mxPoint x="620" y="860" as="targetPoint" />
          </mxGeometry>
        </mxCell>
        <mxCell id="Ho2adMucD-iqSMCuBfXI-79" value="" style="endArrow=none;html=1;entryX=0;entryY=0.5;entryDx=0;entryDy=0;exitX=1;exitY=0.75;exitDx=0;exitDy=0;" parent="1" source="Ho2adMucD-iqSMCuBfXI-66" target="Ho2adMucD-iqSMCuBfXI-76" edge="1">
          <mxGeometry width="50" height="50" relative="1" as="geometry">
            <mxPoint x="530" y="950" as="sourcePoint" />
            <mxPoint x="580" y="900" as="targetPoint" />
          </mxGeometry>
        </mxCell>
        <mxCell id="Ho2adMucD-iqSMCuBfXI-80" value="Cash&amp;nbsp;" style="ellipse;whiteSpace=wrap;html=1;" parent="1" vertex="1">
          <mxGeometry y="505" width="90" height="40" as="geometry" />
        </mxCell>
        <mxCell id="Ho2adMucD-iqSMCuBfXI-81" value="Cheque&amp;nbsp;" style="ellipse;whiteSpace=wrap;html=1;" parent="1" vertex="1">
          <mxGeometry x="120" y="500" width="100" height="40" as="geometry" />
        </mxCell>
        <mxCell id="Ho2adMucD-iqSMCuBfXI-82" value="online payment&amp;nbsp;&lt;br&gt;mode" style="ellipse;whiteSpace=wrap;html=1;" parent="1" vertex="1">
          <mxGeometry x="40" y="565" width="120" height="40" as="geometry" />
        </mxCell>
        <mxCell id="Ho2adMucD-iqSMCuBfXI-83" value="G pay&amp;nbsp;" style="ellipse;whiteSpace=wrap;html=1;" parent="1" vertex="1">
          <mxGeometry x="10" y="640" width="100" height="30" as="geometry" />
        </mxCell>
        <mxCell id="Ho2adMucD-iqSMCuBfXI-84" value="Phone pe" style="ellipse;whiteSpace=wrap;html=1;" parent="1" vertex="1">
          <mxGeometry x="80" y="700" width="100" height="30" as="geometry" />
        </mxCell>
        <mxCell id="Ho2adMucD-iqSMCuBfXI-85" value="UPI" style="ellipse;whiteSpace=wrap;html=1;" parent="1" vertex="1">
          <mxGeometry x="130" y="622.5" width="100" height="40" as="geometry" />
        </mxCell>
        <mxCell id="Ho2adMucD-iqSMCuBfXI-86" value="Bank" style="ellipse;whiteSpace=wrap;html=1;" parent="1" vertex="1">
          <mxGeometry x="180" y="440" width="90" height="40" as="geometry" />
        </mxCell>
        <mxCell id="Ho2adMucD-iqSMCuBfXI-87" value="" style="endArrow=none;html=1;entryX=0.417;entryY=1.125;entryDx=0;entryDy=0;entryPerimeter=0;exitX=0.421;exitY=0.048;exitDx=0;exitDy=0;exitPerimeter=0;" parent="1" source="Ho2adMucD-iqSMCuBfXI-83" target="Ho2adMucD-iqSMCuBfXI-82" edge="1">
          <mxGeometry width="50" height="50" relative="1" as="geometry">
            <mxPoint x="130" y="810" as="sourcePoint" />
            <mxPoint x="180" y="760" as="targetPoint" />
          </mxGeometry>
        </mxCell>
        <mxCell id="Ho2adMucD-iqSMCuBfXI-88" value="" style="endArrow=none;html=1;entryX=0.5;entryY=1;entryDx=0;entryDy=0;exitX=0.593;exitY=-0.048;exitDx=0;exitDy=0;exitPerimeter=0;" parent="1" source="Ho2adMucD-iqSMCuBfXI-84" target="Ho2adMucD-iqSMCuBfXI-82" edge="1">
          <mxGeometry width="50" height="50" relative="1" as="geometry">
            <mxPoint x="160" y="730" as="sourcePoint" />
            <mxPoint x="170" y="640" as="targetPoint" />
          </mxGeometry>
        </mxCell>
        <mxCell id="Ho2adMucD-iqSMCuBfXI-89" value="" style="endArrow=none;html=1;entryX=0.716;entryY=0.956;entryDx=0;entryDy=0;entryPerimeter=0;exitX=0.323;exitY=0.05;exitDx=0;exitDy=0;exitPerimeter=0;" parent="1" source="Ho2adMucD-iqSMCuBfXI-85" target="Ho2adMucD-iqSMCuBfXI-82" edge="1">
          <mxGeometry width="50" height="50" relative="1" as="geometry">
            <mxPoint x="180" y="603" as="sourcePoint" />
            <mxPoint x="150" y="860" as="targetPoint" />
          </mxGeometry>
        </mxCell>
        <mxCell id="Ho2adMucD-iqSMCuBfXI-90" value="" style="endArrow=none;html=1;entryX=0.5;entryY=1;entryDx=0;entryDy=0;exitX=0.5;exitY=0;exitDx=0;exitDy=0;" parent="1" source="Ho2adMucD-iqSMCuBfXI-81" target="Ho2adMucD-iqSMCuBfXI-86" edge="1">
          <mxGeometry width="50" height="50" relative="1" as="geometry">
            <mxPoint x="180" y="590" as="sourcePoint" />
            <mxPoint x="230" y="540" as="targetPoint" />
          </mxGeometry>
        </mxCell>
        <mxCell id="Ho2adMucD-iqSMCuBfXI-91" value="Acc no" style="ellipse;whiteSpace=wrap;html=1;" parent="1" vertex="1">
          <mxGeometry x="150" y="380" width="110" height="40" as="geometry" />
        </mxCell>
        <mxCell id="Ho2adMucD-iqSMCuBfXI-92" value="" style="endArrow=none;html=1;entryX=0.243;entryY=0.975;entryDx=0;entryDy=0;entryPerimeter=0;exitX=0.266;exitY=0.069;exitDx=0;exitDy=0;exitPerimeter=0;" parent="1" source="Ho2adMucD-iqSMCuBfXI-81" target="Ho2adMucD-iqSMCuBfXI-91" edge="1">
          <mxGeometry width="50" height="50" relative="1" as="geometry">
            <mxPoint x="70" y="830" as="sourcePoint" />
            <mxPoint x="120" y="780" as="targetPoint" />
          </mxGeometry>
        </mxCell>
        <mxCell id="Ho2adMucD-iqSMCuBfXI-93" value="" style="endArrow=none;html=1;entryX=0.344;entryY=1.086;entryDx=0;entryDy=0;entryPerimeter=0;exitX=0.325;exitY=0.056;exitDx=0;exitDy=0;exitPerimeter=0;" parent="1" source="Ho2adMucD-iqSMCuBfXI-80" target="Ho2adMucD-iqSMCuBfXI-62" edge="1">
          <mxGeometry width="50" height="50" relative="1" as="geometry">
            <mxPoint x="20" y="760" as="sourcePoint" />
            <mxPoint x="70" y="710" as="targetPoint" />
          </mxGeometry>
        </mxCell>
        <mxCell id="Ho2adMucD-iqSMCuBfXI-94" value="" style="endArrow=none;html=1;entryX=0.667;entryY=1;entryDx=0;entryDy=0;entryPerimeter=0;exitX=0.5;exitY=0;exitDx=0;exitDy=0;" parent="1" source="Ho2adMucD-iqSMCuBfXI-82" target="Ho2adMucD-iqSMCuBfXI-62" edge="1">
          <mxGeometry width="50" height="50" relative="1" as="geometry">
            <mxPoint x="200" y="565" as="sourcePoint" />
            <mxPoint x="50" y="750" as="targetPoint" />
          </mxGeometry>
        </mxCell>
        <mxCell id="Ho2adMucD-iqSMCuBfXI-95" style="edgeStyle=orthogonalEdgeStyle;rounded=0;orthogonalLoop=1;jettySize=auto;html=1;exitX=0.5;exitY=1;exitDx=0;exitDy=0;" parent="1" source="Ho2adMucD-iqSMCuBfXI-84" target="Ho2adMucD-iqSMCuBfXI-84" edge="1">
          <mxGeometry relative="1" as="geometry" />
        </mxCell>
      </root>
    </mxGraphModel>
  </diagram>
</mxfile>
